# xmcd CD database file
#
# Track frame offsets:
#	150
#	16220
#	33990
#	54013
#	68108
#	85436
#	97502
#	110465
#	126361
#	141209
#	156318
#
# Disc length: 2297 seconds
#
# Revision: 0
# Processed by: cddbd v1.5.2PL0 Copyright (c) Steve Scherf et al.
# Submitted via: CDex 1.51
#
DISCID=8508f70b
DTITLE=Gadjo Manouche - Gypsy Jazz Music
DYEAR=2008
DGENRE=Jazz
TTITLE0=Minor Swing
TTITLE1=Daphne
TTITLE2=J'Attendrai
TTITLE3=Sheik Of Araby
TTITLE4=Minor Blues
TTITLE5=Metro Swing
TTITLE6=Dinah
TTITLE7=After You've Gone
TTITLE8=Swing Gitane
TTITLE9=All Of Me
TTITLE10=Les Yeux Noir
EXTD=YEAR: 2008
EXTT0=
EXTT1=
EXTT2=
EXTT3=
EXTT4=
EXTT5=
EXTT6=
EXTT7=
EXTT8=
EXTT9=
EXTT10=
PLAYORDER=
